<svg width="32" height="32" viewBox="0 0 32 32" fill="none" xmlns="http://www.w3.org/2000/svg">
<path fill-rule="evenodd" clip-rule="evenodd" d="M20.5405 10.8889C20.5405 13.3588 18.5077 15.3611 16 15.3611C13.4923 15.3611 11.4595 13.3588 11.4595 10.8889C11.4595 8.41895 13.4923 6.41667 16 6.41667C18.5077 6.41667 20.5405 8.41895 20.5405 10.8889ZM19.6584 16.1654C21.366 15.0147 22.4865 13.0807 22.4865 10.8889C22.4865 7.3604 19.5824 4.5 16 4.5C12.4176 4.5 9.51351 7.3604 9.51351 10.8889C9.51351 13.0887 10.6422 15.0288 12.3604 16.178C9.76686 16.936 7.87123 18.4808 6.55435 20.2532C4.71758 22.7253 4 25.6413 4 27.5H5.94595C5.94595 26.0244 6.54594 23.51 8.12471 21.3851C9.67114 19.3037 12.1496 17.5972 16 17.5972C19.8668 17.5972 22.3426 19.2383 23.8801 21.2717C25.4496 23.3474 26.0541 25.8565 26.0541 27.5H28C28 25.4898 27.2869 22.5684 25.4408 20.1269C24.1225 18.3835 22.2328 16.8968 19.6584 16.1654Z" fill="#222222"/>
</svg>
